<svg xmlns="http://www.w3.org/2000/svg" xmlns:xlink="http://www.w3.org/1999/xlink" viewBox="0 0 209.79 235.17"><defs><style>.cls-1{fill:#231f20;}.cls-2{fill:none;stroke:#231f20;stroke-linecap:round;stroke-linejoin:round;stroke-width:6px;}.cls-3{fill:url(#linear-gradient);}</style><linearGradient id="linear-gradient" x1="72.53" y1="101.37" x2="206.79" y2="101.37" gradientUnits="userSpaceOnUse"><stop offset="0" stop-color="#179bd7"/><stop offset="0.13" stop-color="#2ba0bf"/><stop offset="0.41" stop-color="#51aa92"/><stop offset="0.66" stop-color="#6cb171"/><stop offset="0.86" stop-color="#7db55c"/><stop offset="1" stop-color="#83b755"/></linearGradient></defs><title>Asset 162@1x</title><g id="Layer_2" data-name="Layer 2"><g id="stroked"><path class="cls-1" d="M3.4,213.43a3.54,3.54,0,1,0,3.54-3.54,3.54,3.54,0,0,0-3.54,3.54Z"/><path class="cls-1" d="M118.18,221.2a3.54,3.54,0,1,0,3.53-3.53,3.53,3.53,0,0,0-3.53,3.53Z"/><path class="cls-1" d="M109.79,231.63a3.54,3.54,0,1,0,3.53-3.53,3.53,3.53,0,0,0-3.53,3.53Z"/><line class="cls-2" x1="18.66" y1="198.24" x2="46.34" y2="168.04"/><line class="cls-2" x1="23.42" y1="222.81" x2="71.07" y2="172.64"/><line class="cls-2" x1="130.78" y1="210.6" x2="146.75" y2="193.12"/><polygon class="cls-3" points="206.79 3 104.9 151.64 103.56 199.74 72.53 144.37 206.79 3"/><path class="cls-1" d="M109.79,56.42A3.54,3.54,0,1,1,106.25,60,3.54,3.54,0,0,1,109.79,56.42Z"/><polyline class="cls-2" points="96.74 69.3 3 123.2 72.53 144.37 103.56 199.74 138.53 163.88 206.79 185.94 206.79 3 123.42 52.96"/><line class="cls-2" x1="72.53" y1="144.37" x2="206.79" y2="3"/><polyline class="cls-2" points="206.79 3 104.9 151.64 103.56 199.74"/><line class="cls-2" x1="104.9" y1="151.64" x2="138.53" y2="163.88"/></g></g></svg>